{"title":"Dark.Moon.Rising.2015.WEBRip.480p.x264.AAC-VYTO [P2PDL]","uid":12197904,"size":323019956,"categoryP":"video","categoryS":"movies","magnet":"?xt=urn:btih:d0c5f8da27616f1de22b724b7ae4306c9ed97ea1&amp;dn=Dark.Moon.Rising.2015.WEBRip.480p.x264.AAC-VYTO+%5BP2PDL%5D&amp;tr=udp%3A%2F%2Ftracker.openbittorrent.com%3A80&amp;tr=udp%3A%2F%2Fopen.demonii.com%3A1337&amp;tr=udp%3A%2F%2Ftracker.coppersurfer.tk%3A6969&amp;tr=udp%3A%2F%2Fexodus.desync.com%3A6969","seeders":1,"leechers":0,"uploader":"ValidusVyto","files":7,"time":1438735159,"description":"____    ____ ____    ____ .___________.  ______   \n     /   /      /   / |           | /  __    \n    /   /      /   /  `---|  |----`|  |  |  | \n        /     _    _/       |  |     |  |  |  | \n       /        |  |         |  |     |  `--'  | \n    __/         |__|         |__|      ______/  \n                                                  \nPresenting Small Encodes with quality for years!\n                                                                                                   \n                                                                                                   \n\nDark.Moon.Rising.2015.WEBRip.480p.x264.AAC-VYTO\n\n\nGenre: Fantasy   &lt;a href=&quot;\nhttp://www.imdb.com/title/tt3155734/&quot; rel=&quot;nofollow&quot; target=&quot;_NEW&quot;&gt;\nhttp://www.imdb.com/title/tt3155734/&lt;/a&gt;\n\n\nGeneral\nFormat                         : MPEG-4\nFile size                      : 301 MiB\nDuration                       : 1h 25mn\nOverall bit rate               : 492 Kbps\n\nVideo\nFormat                         : AVC\nBit rate                       : 457 Kbps\nMaximum bit rate               : 4 357 Kbps\nWidth                          : 720 pixels\nHeight                         : 304 pixels\nDisplay aspect ratio           : 2.35:1\nFrame rate mode                : Constant\nFrame rate                     : 23.976 fps\nBit depth                      : 8 bits\nStream size                    : 279 MiB (93%)\nWriting library                : x264 core 146 r2538 121396c\n\nAudio\nFormat                         : AAC\nBit rate                       : 32.0 Kbps\nChannel(s)                     : 2 channels \nChannel positions              : Front: L R \nSampling rate                  : 48.0 KHz\nStream size                    : 19.6 MiB (7%)\nLanguage                       : English\n\nSubtitle                       : Yes\nSource                     \t   : 720p.WEB-DL.DD5.1.H264\t\t\t\n\n\nScreenshots:\n &lt;a href=&quot;\nhttp://ititli.com/2t&quot; rel=&quot;nofollow&quot; target=&quot;_NEW&quot;&gt;\nhttp://ititli.com/2t&lt;/a&gt; &lt;a href=&quot;\nhttp://ititli.com/2L&quot; rel=&quot;nofollow&quot; target=&quot;_NEW&quot;&gt;\nhttp://ititli.com/2L&lt;/a&gt; &lt;a href=&quot;\nhttp://ititli.com/2d&quot; rel=&quot;nofollow&quot; target=&quot;_NEW&quot;&gt;\nhttp://ititli.com/2d&lt;/a&gt; &lt;a href=&quot;\nhttp://ititli.com/20&quot; rel=&quot;nofollow&quot; target=&quot;_NEW&quot;&gt;\nhttp://ititli.com/20&lt;/a&gt; &lt;a href=&quot;\nhttp://ititli.com/2A&quot; rel=&quot;nofollow&quot; target=&quot;_NEW&quot;&gt;\nhttp://ititli.com/2A&lt;/a&gt; &lt;a href=&quot;\nhttp://ititli.com/2l&quot; rel=&quot;nofollow&quot; target=&quot;_NEW&quot;&gt;\nhttp://ititli.com/2l&lt;/a&gt; &lt;a href=&quot;\nhttp://ititli.com/2m&quot; rel=&quot;nofollow&quot; target=&quot;_NEW&quot;&gt;\nhttp://ititli.com/2m&lt;/a&gt; &lt;a href=&quot;\nhttp://ititli.com/2x&quot; rel=&quot;nofollow&quot; target=&quot;_NEW&quot;&gt;\nhttp://ititli.com/2x&lt;/a&gt; &lt;a href=&quot;\nhttp://ititli.com/27&quot; rel=&quot;nofollow&quot; target=&quot;_NEW&quot;&gt;\nhttp://ititli.com/27&lt;/a&gt; &lt;a href=&quot;\nhttp://ititli.com/2C&quot; rel=&quot;nofollow&quot; target=&quot;_NEW&quot;&gt;\nhttp://ititli.com/2C&lt;/a&gt; &lt;a href=&quot;\nhttp://ititli.com/2F&quot; rel=&quot;nofollow&quot; target=&quot;_NEW&quot;&gt;\nhttp://ititli.com/2F&lt;/a&gt; &lt;a href=&quot;\nhttp://ititli.com/2J&quot; rel=&quot;nofollow&quot; target=&quot;_NEW&quot;&gt;\nhttp://ititli.com/2J&lt;/a&gt;\n\n----------------------------------------------------------------------------------------------------\n\n\nEncoder Notes: Looking For Early Access To Anything You Can Provide DVDScr, R5, DVDR, BluRay, Direct\nAudio, Music Releases and Seedboxes. If You Got anything to offer please contact us.\n\nSupport us by donating BC - 1FgwdzPsd1y25Gea8wP1qni35uGCtmkRCD","torrent":{"xt":"urn:btih:d0c5f8da27616f1de22b724b7ae4306c9ed97ea1","amp;dn":"Dark.Moon.Rising.2015.WEBRip.480p.x264.AAC-VYTO+%5BP2PDL%5D","amp;tr":["udp%3A%2F%2Ftracker.openbittorrent.com%3A80","udp%3A%2F%2Fopen.demonii.com%3A1337","udp%3A%2F%2Ftracker.coppersurfer.tk%3A6969","udp%3A%2F%2Fexodus.desync.com%3A6969"],"infoHash":"d0c5f8da27616f1de22b724b7ae4306c9ed97ea1","infoHashBuffer":{"type":"Buffer","data":[208,197,248,218,39,97,111,29,226,43,114,75,122,228,48,108,158,217,126,161]},"announce":[],"urlList":[]}}